<?xml version="1.0" encoding="utf-8"?>
<!-- Generator: Adobe Illustrator 19.2.1, SVG Export Plug-In . SVG Version: 6.00 Build 0)  -->
<svg version="1.1" id="layer" xmlns="http://www.w3.org/2000/svg" xmlns:xlink="http://www.w3.org/1999/xlink" x="0px" y="0px"
	 viewBox="0 0 652 652" style="enable-background:new 0 0 652 652;" xml:space="preserve">
<style type="text/css">
	.st0{fill:#C6A86F;}
</style>
<g>
	<path class="st0" d="M174.3,352.7c34.5,0,61.5,21.8,61.5,57.5c0,34.3-25.5,62.7-62.5,62.7c-42,0-60.5-32.7-60.5-60.2
		C112.9,387.8,132,352.7,174.3,352.7 M177.5,466c13.8,0,40.8-8.7,40.8-51.5c0-33.1-20.9-55.5-45.1-55.5c-25.6,0-43.2,17-43.3,49.4
		C129.9,441.6,149.9,466,177.5,466"/>
	<path class="st0" d="M274.4,459.5c0.8-6.5,0.8-18.5,0.8-33.3v-27c0-23.9,0.1-28.2-0.3-33.1l-0.1-10.9c1.8,0,19.8-0.5,29-0.5
		c15.2,0,44.5-1.4,62.7,17.5c7.7,8,14.9,20.7,14.9,38.9c0,19.3-8,34.2-16.5,43.2c-6.6,6.9-21.7,17.6-47.7,17.6
		c-13.2,0-41.5-1.9-43-1.9L274.4,459.5z M291,415.8c0,16.2,0.2,30.3,0.3,33.2c0.2,3.8,1,9,2.3,10.6c2,2.9,5.9,6.1,24,6.1
		c14.3,0,25.6-4.2,34.6-13.2c8-7.8,12.3-22.5,12.3-36.6c0-19.5-8.4-32-14.7-38.6c-14.4-15.2-30.1-16.3-48.3-16.3
		c-3.1,0-7.2,0.5-8.5,1.1c-1.4,0.6-1.8,1.4-1.8,3.1c-0.2,5.2-0.2,19.8-0.2,31.6V415.8z"/>
	<path class="st0" d="M419.9,459.4c0.8-6.5,0.8-18.6,0.8-33.3v-27c0-23.9-0.1-28.2-0.3-33.1l-0.9-11.3c2.1,0,6,0.4,9.2,0.5
		c2.3,0,6.6-0.6,8.5-0.5l-0.3,11.3c-0.3,4.9-0.3,9.2-0.3,33.1v27c0,14.7,0,26.8,0.8,33.3l1,11.2c-3.3-0.1-5.2-0.5-9.6-0.5
		c-4,0.1-6.5,0.7-9.2,0.5L419.9,459.4z"/>
	<path class="st0" d="M59.6,431.5c0-12.4,0-18.4,0-18.4c2.6,0,5,0.4,7.9,0.5c2.4,0,5.6-0.5,8.2-0.5l0.1,11.3
		c-0.3,4.9-0.3,9.5-0.3,15.9v17.2c0,6.9-0.2,7.2-2,8.3c-9.8,5.2-25.1,6.9-34,6.9c-14.6,0.1-37.1-2.5-52.5-17.2
		c-9-8.6-18.2-24.1-18.2-42.9c0-24.5,12.1-41.9,25.7-50.4c13.8-8.6,30.9-9.7,42.7-9.7c9.7,0,21.3,2,24.2,2.6
		c3.2,0.8,8.6,1.3,12.4,1.5c1.5,0.2,1.8,0.8,1.8,1.4c0,2.2-0.9,1.1-1.1,16.5c0,1.7-1.6,1-3.6-0.9c0,0-2-1.5-3.5-2.8
		c-5.2-4.7-15.6-11.8-35.4-11.8c-9.6,0-20,0.9-30.9,9.4c-8.9,7-15.5,21-15.5,38.9c0,21.6,10.9,37.2,16.2,42.5
		c12.1,11.8,24.3,15.4,38.6,15.8c5.5,0.1,12.4-0.7,16-2.6c2-1.1,3.1-2.8,3.1-5.4V431.5z"/>
	<path class="st0" d="M566.4,354.8c1,0.1,4.8,0.4,6.7,0.4c0.9,0,1.1-0.2,5.6-0.2l-7.3,18.1c-1.7,4.3-9.6,22.6-17.9,41.5
		c-9.7,22.2-16.5,39-20,46.5c-4.3,9.2-5.2,11.6-6.8,11.6c-1.9,0-2.9-2.1-5.8-9.5l-38.1-93.9l-5.9-14.6c2.8-0.1,7.9,0.5,9.7,0.5
		c1.6,0,7.8-0.4,9.6-0.5c0,0,4,12.7,6.2,18.7l28.1,73.9c8.9-20.5,28.4-69.5,31.8-80.5C563.1,364.5,566.4,354.8,566.4,354.8"/>
	<path class="st0" d="M663.2,464.1l-13.3-34.9c-0.3-0.6-0.6-0.9-1.4-0.9h-33c-0.8,0-1.2,0.5-1.5,1.2l-9,24.3
		c-1.4,3.8-5.9,16.8-5.9,16.8s-3.1-0.1-4.8-0.1c-1.7,0-4.5,0.3-6.3,0.1l6.6-16.8l36.1-95c1.8-5.1,3.2-6,4.1-6c0.9,0,2.3,1.1,4.2,5.9
		c2.3,5.8,26.6,68.6,35.8,91.9l7.6,20.1c-2.3,0-6.3,0-16.9-0.3L663.2,464.1z M646.2,421.4c0.7,0,0.7-0.5,0.6-1.1L632.6,379
		c-0.6-1.2-1-1.2-1.7,0l-13.7,41.3c-0.3,0.8,0,1.1,0.5,1.1H646.2z"/>
	<path class="st0" d="M181.6,535.8l0.1,0.2c2.7,0.9,7.7,5,7.7,11.4c0,7.1-6.5,13.3-16,13.3h-23.3l0-1.9c3.2,0,4.7,0.1,5.9-3.5
		l11.7-36.8c0.3-1,0.8-2.8,0.8-3.9c0.1-1.9-2.1-2.2-4.2-2.3l0.2-1.5h14.7c8.9,0,15.1,4.8,14.8,11.7
		C193.7,529.7,188.1,535,181.6,535.8 M173.6,536.9l-4.9-0.2l-6.8,21.5l6.8,0.5c9.9,0,14.1-4.7,14.1-13.3
		C182.8,538,176.6,537.1,173.6,536.9 M179.7,512.4c-2.5,0-3.6,0.8-4.4,3.5l-5.8,19.1c1.3,0.1,3.3,0,4.1,0c11.4,0,13.9-6,13.9-14.1
		C187.4,515.4,185.4,512.4,179.7,512.4"/>
	<path class="st0" d="M210.6,541.8c-3.9,2.4-6.9,3.8-10.1,5.4c-1,2.6-1.8,6.2-1.8,8s-0.6,3.3,1.8,3.3c4.1,0,6.2-2.2,10-7.6l1.1,0.6
		c-3.5,5.4-7.8,9.7-12.4,9.7c-3.9,0-6.4-3-6.4-6.9c0-8,10.6-26.2,19.6-26.2c3.2,0,5.4,2.1,5.4,4.4
		C217.9,535.6,215.3,538.9,210.6,541.8 M212.2,530.1c-3.2,0.5-6,3.8-10.6,14.5c6.7-3,11.7-7.6,12.4-12.3
		C214.2,530.9,213.6,529.9,212.2,530.1"/>
	<path class="st0" d="M223.7,550c-1.7,4.2-1.8,5-1.8,5.7c0,0.9,0.2,0.6,0.8,0.6c1.1,0,3.6-2.4,6.2-6l1,0.9c-4.4,6.1-10,10-12.4,10
		c-1.1,0-1.7-1.5-1.7-2.4c0-0.9,0.4-3.1,1.5-5.7l15.5-37.1c0.6-1.4,0.9-2.9,0.6-3.2c-0.6-0.6-1.2-0.9-3.3-0.9l0.2-1.6l9.9-0.4
		L223.7,550z"/>
	<path class="st0" d="M262.2,532.6c-0.8,0-1.6-0.5-2.1-0.9c-0.7-0.4-0.7-0.8-1.6-0.7c-0.8,0.1-0.8,0.5-1.4,1
		c0.3,0.8,0.2,2.2,0.2,3.4c0,6.1-5.6,15.9-13.7,15.9c-1,0-2.3-0.2-2.9-0.4c-1.7,0.8-2.7,1.2-2.7,2.7c0,1.3,0.2,1.3,2.8,2.4
		c3.4,1.4,7.5,2,11.1,3.7c2.6,1.3,5,3.7,5,6.7c0,5.4-7.8,9.3-15.3,9.3c-8.2,0-14.2-3.5-14.2-7.5c0-3.6,3.7-6,9.6-7.7v-0.1
		c-2.1-0.7-2.8-2.1-2.8-4.2c0-2.6,1.9-4,5.2-5.9c-2-1.3-2.9-4.5-2.9-8.8c0-5.7,4.8-13,13.7-13c2.8,0,4.6,0.9,5.7,2.5
		c1.6-1.5,3.9-2.4,5.8-2.4c1.8,0,2.7,1.3,2.7,2.2C264.2,531.6,263,532.6,262.2,532.6 M248.4,563.8c-2.5-1-7.3-2-9.3-2.6
		c-5.2,1.6-7.4,3.1-7.4,6.9c0,4.8,5.5,5.6,10.1,5.6c6.9,0,11.2-2.4,11.5-5.6C253.6,565.7,251.6,565.1,248.4,563.8 M250.4,529.7
		c-6.1,0-10,9.7-10,14.5c0,3,0.3,5,2.9,5c5.8,0,9.9-11.6,10.1-15.8C253.6,531.1,252.8,529.7,250.4,529.7"/>
	<path class="st0" d="M269.6,546.6c-2,4.3-4.3,8.1-4.3,9.4c0,0.6,0.3,1.2,0.8,1.1c1.5-0.4,2.9-1.3,6.4-5.8l0.9,0.8
		c-2.5,3.3-7.4,9.4-11.8,9.4c-1.1,0-1.9-0.8-1.9-2.4c0-4.2,2-6.5,6-15.3c2.5-5.4,4.3-9,4.3-10.4c0-0.6-0.2-0.9-0.6-0.9
		c-1.6,0-5.5,4.7-6.9,6.5l-0.9-1c3.4-4.8,8.2-9.4,11.9-9.4c1.1,0,2.5,1.1,2.5,2.2C276.1,532.8,273.3,538.5,269.6,546.6 M275.8,517.2
		c-2.3,0-3.6-1-3.6-4c0-1.6,1.5-3,3.2-3.1c2.3-0.1,3.7,1.7,3.7,3.3C279,515.1,277.4,517.2,275.8,517.2"/>
	<path class="st0" d="M299.9,550.5c-1.6,3.9-1.8,4.4-1.8,5.3c0,0.4,0.1,0.8,0.5,0.8c1.4,0,3.3-1.6,6.9-7l0.9,1
		c-4.6,7.1-9.1,10.8-11,10.8c-2,0-2.7-1.1-2.7-2.5c0-1.6,0.1-2.9,2.8-9.9l0.2-0.9c-6.5,10.9-9.7,12.5-15.1,13.5
		c-1.9,0.4-3.3-2.2-3.3-4.3c0-2.1,2.4-6.7,5.4-13.2c3.2-6.9,5-10.4,5-11.2c0-0.5-0.1-0.8-0.7-0.8c-1.1,0-3.9,2.1-6.7,5.7l-0.8-0.6
		c3.5-4.3,8.1-9,11.1-9c1.3,0,2.7,1.3,2.7,2.5c0,1.7-2,5.9-5.9,14.3c-3.4,7.3-4.4,9.5-4.4,11.5c0,0.7,0.3,1.1,1,1.1
		c3.2,0,9.1-7.7,14.2-16.6c2.2-3.9,4.4-8,5.6-11.4l5.1-0.2L299.9,550.5z"/>
	<path class="st0" d="M349.3,545.4c-3.8,7.8-4.3,8.6-4.3,10.1c0,0.6,0.3,0.8,0.7,0.8c1.1,0,3.2-1.4,5.7-4.9l1.3,1
		c-3.4,4.8-8.7,9.2-11.4,9.2c-0.8,0-2.5-1.5-2.5-3c0-1.9,1.4-4.6,5.2-12.7c3.9-8,5.2-10.1,5.2-12.2c0-1-0.1-1.6-1.1-1.6
		c-3.4,0-8.7,6.3-14.2,16.1c-2,3.6-4.5,8.3-6.1,12.2l-4.7,0l6-14.4c2.7-6.4,4.4-10.5,4.4-12.8c0-0.7-0.1-1.4-1.2-1.4
		c-3.1,0-8.8,7-13.8,15.9c-2.2,4.1-4.9,9.5-6,12.5l-4.7,0c1.2-2.6,3.8-9,6.2-14.9c2.9-6.8,4.5-10.5,4.9-12c0.2-0.6,0.3-1.8-0.5-1.8
		c-1.4,0-3.9,3-7.1,7.8l-0.8-0.9c4-6.3,7.8-10.1,11-10.1c2.4,0,4.4,1.3,0.1,11.3l0.1,0.1c4.3-6.4,8.9-11.3,14.1-11.3
		c2,0,3,1.2,3.1,2.8c0.2,3.2-0.3,5.2-1.9,8.7l0.3-0.1c4.9-7.1,8.3-11.4,14.2-11.4c1.7,0,3.1,1.3,3.1,3.4
		C354.6,535.5,351.9,539.9,349.3,545.4"/>
	<path class="st0" d="M386.5,554.9c-0.3,0.7-0.5,1.7-0.5,2.5c0,1.2,0.5,1.6,4.4,1.7l0.2,1.4l-16.2,0v-1.4c3.9-0.1,5,0,6.3-3.9
		l12.4-37l-6,1.7l-1.2-1.2c4.8-2.1,10.4-4.8,14.8-7.7l0.5,1.2L386.5,554.9z"/>
	<path class="st0" d="M401,561l-0.8-1.3c8.2-5,13.7-8.3,19.6-17.1l0.1-0.1c-1,1.2-3.7,2-7.5,1.3c-5.2-0.9-7.3-4.5-7.3-10.6
		c0-7.1,8.4-21.2,19.4-21.2c5.9,0,8.1,5.1,8.1,11.9C432.6,539,419.7,556,401,561 M424.7,513.6c-5.6,0-14,11.5-14,21.1
		c0,5.1,2,7.2,4.9,7.2c7.6,0,12.9-16,12.8-22.3C428.3,515.2,427.6,513.6,424.7,513.6"/>
	<path class="st0" d="M456.8,532.3c-5.7,5.3-12.7,8-18.5,14.4c-3,3.4-4.3,5.4-5.2,8.1l14.2,0c4.1,0,5,0.3,6.9-4l1.7,0.3l-4.6,9.5
		l-23.1-0.1c1.5-5,3.9-9.2,8.5-14.4c4.7-5.3,10.5-9.6,15.4-14.7c4-4.1,5.3-7.1,5.3-11.1c0-4.1-1.9-5.7-5.8-5.7
		c-4.6,0-9.7,3.1-13,8.6l-1.1-0.9c3.5-5.5,9.2-10.5,16.9-10.5c5.1,0,9,2.6,9,8C463.3,524.3,460.6,528.8,456.8,532.3"/>
	<path class="st0" d="M475.8,531.2l-0.1,0.4c1.8-1.7,3.8-2.2,6.7-2.2c4.8,0,8.5,2.8,8.5,9.8c0,5.7-6.9,21.9-18.9,21.9
		c-6.3,0-9.2-6.1-9.2-11.7c0-16,12.6-31.1,32-37l1.3,1.2C488,517.3,480.4,522.7,475.8,531.2 M480.3,531.3c-8.9,0-12.8,16-12.8,22
		c0,4.8,1.7,6.2,4.5,6c7-0.6,12.9-15.1,12.9-21.9C484.9,533.9,484.2,531.3,480.3,531.3"/>
	<path class="st0" d="M365.7,108.6c-2.2,1.2-3.9,3.2-4.3,5.5c0.1-1.8,0.6-3.9,0.9-5.9c0-0.2,0-0.3,0.1-0.5c2-2.5,2.7-6.6,2.8-7.6
		c0.1-3.8,1.2-10.3-5.8-13.9l-3.2,0.3c8.1,2.2,7.3,7.9,7.6,13.1c0.1,2.2-1,5.8-2.8,7.7c-0.2,0.2-2.3,1.7-2.5,1.7
		c0.4,0,1.1,0.5,2.1,0.2c-0.5,3.5-0.4,6.5,1.9,8.4c-0.7-0.6-1-1.6-1-2.8c1-2.8,3.7-4.4,6.6-4.9C367.6,109.8,366,109,365.7,108.6"/>
	<path class="st0" d="M338.1,185.4c-0.3-0.5-0.7-1.1-0.9-1.6c-4.2-7.8-1.2-16.5,4.1-20l-2.6-3.2c-3.3,2.8-11.3,15-3,26.8
		C336.2,187.3,337.2,186.9,338.1,185.4"/>
	<path class="st0" d="M347.9,196.1c0.6,0.6,1.2,1.1,1.8,1.7c3,2.9,6.1,5.8,9.3,8.6c1.8,1.6,5.2,3.6,4.7,6.5
		c-0.3,1.5-1.5,2.5-2.4,3.6c-1,1.2-1.8,2.5-2.7,3.8c-3.3,5.3-5.9,11.1-7.9,16.9c-1.8,5-3.3,10.2-4.4,15.4c-0.1,0.4-0.1,0.9-0.4,1.1
		c-0.2,0.2-1.8,1.8-2.3,2.5c-1,1.2-2.1,2.5-2.9,3.9c0,0.1-0.1,0.1-0.1,0.1c-1.3,2.3,1.3,3.6,1.4,6.2c0,1.5,0.2,3,0.3,4.4
		c0.2,2,0.4,4.1,0.7,6.1c0.1,1,0.3,2,0.4,3c0.1,0.5,0.2,0.9,0.2,1.4c0,0.2,0.1,0.4,0.1,0.7c0,0.1,0,0.5,0.1,0.6
		c0.2,0.1,0.3-0.7,0.3-0.8c0.1-0.3,0.1-0.7,0.2-1c0.2-0.9,0.4-1.8,0.7-2.7c0.6-2.3,1.1-4.5,1.7-6.8c0.2-0.9,0.4-1.9,0.6-2.8
		c1.1-6.1,2.6-13.2,3.6-15.3c0.5-1,1-2,1.6-3.1c3.6-7.1,7.6-14,11.9-20.6c2.2-3.4,4.5-6.7,6.9-9.8c1.9-2.5,6.2-5.8,5.2-9.4
		c-0.2-0.6-0.6-1.3-0.9-1.9c-0.8-1.7-1.7-3.3-2.7-4.9c-3-5.3-6.3-10.5-9.8-15.5c-1.3-1.8-2.9-3.6-4.4-5.4c0,0,2.3-1.3,2.4-1.2
		c3.7,5.1,7.3,10.3,10.7,15.5c1.9,3,3.8,6,5.6,9c1.9,3.2,3.6,6.7,1.2,10.1c-1.3,1.8-2.7,3.5-4,5.3c-3.6,4.8-7.2,9.6-10.7,14.5
		c-4.7,6.6-10,13.5-13.3,20.9c-0.3,0.7-1.6,11.4-2.4,13.6c-0.4,1.2-0.8,2.3-1.2,3.4c-0.6,1.8-1.3,3.6-1.9,5.4
		c-0.3,0.8-0.5,1.6-0.8,2.4c-0.1,0.3-0.2,0.7-0.3,1c0,0.1-0.1,0.6-0.2,0.6c0,0-0.1,0-0.2-0.1c-0.1-0.1-0.1-0.3-0.2-0.4
		c-0.1-0.3-0.3-0.6-0.4-0.9c-0.2-0.5-0.5-1-0.6-1.5c-0.2-1.7-1.4-9.5-1.9-11.1c-0.6-2.5-3.7-5.9-3.2-8.5c0.4-1.9,6.9-5.1,7.6-6.9
		c0.7-1.8,0.8-4,1.1-5.9c0.6-3.8,0.8-5,1.7-8.8c1.9-7.5,4.4-15.3,9.1-21.6c1.3-1.8,3-3.3,4.5-4.9c1.8-1.9-1-3-2.5-4.1
		c-1.8-1.4-3.6-2.8-5.4-4.3c-2.5-2.1-5-4.2-7.5-6.3L347.9,196.1z"/>
	<path class="st0" d="M425.1,190.4c-1.2-4.8-0.6-8.4-0.8-8.2c-0.4,0.3-0.6-1.7-0.9-1.1c-0.7,1.7-1.3,4.5-0.8,8.4
		c0.8,5.8,2.6,10.4,5.1,15.4c8.4,17.2,2.2,32-5.2,35c3.9,11.8,10.7,23.1,11.9,36c1.1,12.3,3.2,20.2,6,30.1
		c-2.2-4.5-5.6-9.7-7.7-14.6c-5.6-13.3-9.3-26.3-12.3-31.6c-2.1-3.8-4.9-9.2-7.6-12.3c0.6,2.9-0.2,5.4-0.9,6.3
		c6.5,7,9.2,16.9,13.5,25.5c-0.2,7.6,15.3,33.2,18.6,38.9c2.7,4.6,4.5,13.8,4.5,13.8s12.2,0,12.4,0c-0.2-0.8-2.7-4.5-3.8-5.7
		c-1.6-1.8-7.1-6.9-8.2-8.4c-2.1-3.2-4-6.6-5.5-10.1c-3.4-7.9-5.4-16.9-5.1-25.5c0.4-12.5-5.4-22.9-8-34.7c-0.4-1.7-1.3-5.1-1.3-5.1
		c4.1-5.2,13.2-18,1.8-35.1C427.9,202.9,426.4,196,425.1,190.4"/>
	<path class="st0" d="M464.3,144c0.8-0.9,5.3-5.3,4.9-6.2c-0.4-1-4.1,0.7-7.9,2.6c-1.2-1.5-2.4-3-3-3.7c-0.1-0.1-0.2-0.2-0.2-0.3
		c3.2-1.9,6.1-3.8,6-4.3c-0.3-1.8-6.5-2-12.7-1.2c-32-20.4-75.9-0.2-85.3,34.9c-0.3,1.1,0.4,5.3,0.2,6.5c-0.4,4.4-4.5,8-4.5,8.1
		c0.3,0.2,2.4,0.4,2.4,0.5c0,1.9,0.1,1.1,0.3,3.1c0.2,0.3,2.3,3.1,2.3,3c0-1.2,0-2.4,0.1-3.6c2.2-37.5,40-65.9,73.1-49.9
		c5.5,2.7,9.7,6.4,12.9,10.5c-0.2-0.3,0.6,7.6,0.4,7.4c0.9,3.1,0.4,2.6,0,6c-0.1,1.3-2,2.1-3.3,6.9c-1.3,4.4-1.8,33.3-1.4,34.9
		c0.6,2.5-0.8,2.6-2.1,4.3c-1,1.3-2.2,2.6-3.9,2.9c-2.5,0.5-1.4-2.3-8.5-3.2c-1.1-0.1-3.1-11.5-3.3-13.6
		c-1-13.4-12.8-27.4-13.3-29.4c0,0-0.6,5.1-0.5,5.4c0.9,1.5,9,15.3,10,17.6c1.3,3,2.2,6.1,2.9,9.3c0.4,1.8,1.3,11.6,2.3,12.5
		c1.6,1.5,3.4,2.1,5.4,2.3c1.4,0.1,2.8,3.3,5.1,3.1c3.5-0.3,3.9-3,4.9-3.8c4.6-3.5,2.8-11.2,2.9-13.6c0.3-7.9,1.8-22.8,2.2-24.8
		c1-6.2,1.7-2.8,3.1-5.3c0.8-1.4-0.8-10.6,0-11.3C456.7,148.8,462.4,146.2,464.3,144"/>
	<path class="st0" d="M305.7,126.3c0.1-1.4,2-1.6,3-2.1c1.5-0.8,1.3-2.1,1.3-3.7c0-3.9-1.5-8.7,1.1-12.1c2.5-3.4,5.9-6.2,9.8-7.8
		c5.5-2.3,11-4.4,16.3-6.9c1.1-0.5,2-1.2,3.1-1.5c1.3-0.4,2.6-0.8,3.9-1.2c2.6-0.8,5.2-1.7,7.7-2.8c1.1-0.5,2.1-1,3.1-1.8
		c0.7-0.6,1.7-1.2,2.5-0.9c0.5-0.7,0.6-2.3-0.3-2.7c-1.8-0.9-2.8,1.3-3.8,2.3c-1.3,1.4-3.4,2.2-5.1,3c-1.9,0.8-3.6,1.5-5.5,2.4
		c-2.1,1-4.4,1.4-6.5,2.3c-6.5,2.7-13.7,4.5-19.8,8.1c-2.6,1.5-5.9,3.6-7.4,6.4c-1.7,3-1.1,5.7-0.9,8.9c0.2,2.2,0.3,3.7-1,5.5
		C306.1,123.4,305.7,124.1,305.7,126.3"/>
	<path class="st0" d="M370.7,108.1c-1.4-1.2-2.5-2.7-2.2-4.4c-0.1,2.9,5.5,5,7.8,6.4c4.7,3,8.4,7.2,8.3,11.8
		c-0.1,4.6-1.2,4.9-2.2,6.7c-0.7,1.3-1.2,2.1-0.8,3.5c0.3,1.4,0.3,1.9-0.2,3.2c0.3-0.9-0.8-1.5-1.2-2c-0.7-0.9-0.3-1.6,0.2-2.5
		c1-2.3,2.7-5.2,2.4-9.4c-0.3-4.1-1.2-5.9-5.1-9.3C376.5,111.3,371.9,109.2,370.7,108.1"/>
	<path class="st0" d="M325.5,169.8c-0.2,0.3-0.3,0.5-0.5,0.8c-1.5,1.7-3.8,0.6-5.7,0.2c-1-0.2-2.3-0.2-3.1,0.3
		c1.3-0.9,1.2-1.3,2.8-1.6c1.2-0.2,2.8,0.2,3.8-0.5c1.1-0.9,1.2-2.5,2.3-3.4c1-0.8,2.4-1,3.6-1.3c3.9-0.9,2.7-3.7,4.1-6.3
		c0.5-1,1.6-1.8,2.5-2.4c-1.2,0.8-1.2,3.8-1.4,5c-0.3,1.6-1,3.3-2.5,4.1C328.4,166.2,327.2,166.8,325.5,169.8"/>
	<path class="st0" d="M342.4,85.4c-3,2.1-5.8,3.8-9.1,5.2c-6.5,2.7-13.7,4.5-19.8,8.1c-5.9,3.5-11.1,8.9-11.9,16
		c-0.3,2.8,2.1,6.9,1.2,9c-1.1,2.7-6.4,2.7-8.1,3.1c-5,1.4-8.8,4.6-8,8.3c0.8,3.7,0.9,4.7,0.4,7.1c-0.7,3.2-4.3,3.1-6.5,4.7
		c-3.4,2.3-3.3,4.2-3.7,8c-0.3,3.6-2.9,3.7-5,6c-2.1,2.4-1.4,4-2,6.8c-0.4,1.8-1.1,2.8-2.6,3.4c-0.1,0.1-0.1,0.2,0,0.2
		c3.4,0.4,3.4-3.8,3.9-5.4c0.9-3,1.3-4.2,4.5-5.7c1.4-0.6,3.6-0.8,4.2-2.4c1.4-3.3-1-6,1.8-8.8c2.1-2.1,5.9-1.7,8-4
		c2.6-2.8,0.4-6.5,0.3-7.9c-0.2-2.6,0.3-6.2,3.2-8.1c1.2-0.8,4.2-1,6.6-1.1c1.2,0,2.5-0.1,3.5-0.6c0.6-0.3,1-0.8,1.3-1.2
		c1.8-2.1,0.6-4.4,0.4-7.4c-0.8-8.8,4.8-17.1,13-20.5c5.5-2.3,11-4.4,16.3-6.9c3.5-1.7,6.6-4.1,10.1-5.9c2.8-1.4,7.3-3.6,10.2-1.5
		C354.4,77.8,343.9,84.3,342.4,85.4"/>
	<path class="st0" d="M305.5,149.1c1,0,1.6-0.3,2.5-0.8c2.7-1.6,3.9-4.4,4.4-7.1c1.3-7.5,10.8-14.9,19.1-18.4
		c4.6-1.9,12.9-10.1,15.2-15.4c-9.6,4.1-21.9,9.5-29.3,19.8l-1.2,0.8c1.4-0.9,2.9-5.1,4.2-6.6c2.4-2.7,5.4-4.9,8.4-6.9
		c3.5-2.4,7.4-4.4,11.2-6.3c2.8-1.3,7.2-1.5,8.2-5.1c3.9,6.3-10.1,19.5-15.1,21.7c-10.1,4.4-17.1,7.6-19.9,17.2
		c-0.9,3-2.5,6.3-5.4,7.8c-0.3,0.2-2.5,0.7-3.6,0.2c-1.7-0.7-4.8-2-5.4-1.3c0.6-0.8,1.5-1.2,2.9-0.8
		C301.9,148,304.2,149,305.5,149.1"/>
	<path class="st0" d="M297.2,137.3c0-0.5,0.1-1.1,0.2-1.6c0.7-2.4,2.4-3.7,4.9-3.9c2.4-0.2,4.5,1.6,6.6,1.4c1.1-0.1,2.2-0.9,3-1.7
		c1.6-1.6,2.6-3.9,3-6.1c1.3-7.5,10.4-15.8,18.9-18.7c10-3.3,15.5-11.5,15.2-15.3c-9.6,4.1-21.9,9.5-29.3,19.8l-1.2,0.8
		c1.4-0.9,2.9-5.1,4.2-6.6c2.4-2.7,5.4-4.9,8.4-7c3.6-2.4,7.4-4.4,11.2-6.3c2.8-1.3,7.3-1.5,8.2-5.1c3.9,6.3-3.7,16.9-15.1,21.7
		c-10.1,4.3-17.1,7.6-19.9,17.2c-1,3.3-2.7,7.4-6.4,8.4c-2.7,0.7-4.7-2-7.4-0.8c-2.1,0.9-2.6,3-2.9,5c-0.6,4.1-4.5,3-6,5.8
		c-0.2-2.1,2-2.3,3.2-3.5C297.2,139.8,297.1,138.6,297.2,137.3"/>
	<path class="st0" d="M301.7,151.1c-0.3-0.1-0.6-0.1-1-0.1c0,0.6,1.3,0.9,1.8,1.2c0.9,0.6,1.6,1.6,2.5,2.2c0.9,0.6,2,1.1,3,1.4
		c2.4,0.7,4.9,0.4,7.1-0.8c0.4-0.2,0.8-0.5,1.2-0.8c16.6-13,16.5-26.7,26.3-37.6c-1.5,0.7-3.2,1.4-3.2,1.4
		c-3.5,3.1-9,24.2-23.3,34.1c-2,1.4-4.4,2.1-6.8,1.9c-1-0.1-2-0.3-2.9-0.6c-0.9-0.4-1.6-1-2.4-1.5c-0.4-0.2-0.7-0.4-1.1-0.6
		C302.4,151.3,302,151.2,301.7,151.1"/>
	<path class="st0" d="M284.6,170c1.3-4.1,5.6-1.9,8.7-1.9c4.6-0.1,5.2-3.6,6.4-7c1.4-3.9,9.5-1.8,13.2-1.7c5.2,0.2,6.6,0.8,10.9-2.6
		c4.8-3.8,2.2-12.4,5.1-17c-1.5,2.3-3.6,2.7-4.3,5.9c-0.5,2.3-1,7.6-2.6,9.6c-3.3,4.1-5,3.3-9.9,3.1c-3.2-0.1-10.7-2.4-12.8,0.2
		c-2.4,3.1-1.6,7.2-6.1,7.9c-3.1,0.5-7.4-3.1-9.4,3.6C283.8,170.4,284.4,170.4,284.6,170"/>
	<path class="st0" d="M298.5,169.9c-1.7,0.4-3.4,0.2-5-0.4c-0.8-0.3-1.6-0.7-2.3-1c-0.7-0.3-1.5-0.5-2.3-0.9c0.2-0.3,1.1,0,1.4,0.1
		c0.5,0.2,1,0.3,1.5,0.4c1.5,0.3,3.3,1.1,4.9,0.7c4.7-1.1,3.1-6.9,7.1-8.5c2.9-1.2,6.6,0.2,9.4,1.1c19,6.2,26.8-11.2,19.4-21.1
		c-0.6-0.8-1.6-4.6-0.7-6.8l2.9-4.8c-2.6,6.3-1.4,10.3-0.6,11.6c8.6,14.8-6.8,29.5-20.9,22.4c-2.8-1.4-7.2-2.8-9.9-0.2
		C301,164.9,303,168.8,298.5,169.9"/>
	<path class="st0" d="M305.4,190.6c0.9,2.3,3.7,0.4,5.3,0.7c1,0.2,1.6,1.1,2.5,1.2c1.3,0,2.3-1.4,3.6-1.5c2.2-0.2,3.5,1.9,5.5,2.3
		c2.5,0.4,3.4-2.3,4.7-3.8c3.3-3.9,6.1-1,9.8-3.2c2.6-1.6,2.4-5.8,3.1-8.5c0.8-3,2.6-5.2,5.7-5.9c2.8-0.6,5.8-0.2,8.7-0.4
		c1.4-0.1,3.3-0.4,4.5-1.2c2.2-1.4,2.5-4.1,2.7-7c0.3,1.1,0.8,3.9-0.7,6.5c-1.6,2.8-5.4,3.4-8.5,3.7c-4.5,0.5-8.2-0.7-10.9,3.9
		c-1.6,2.6-0.3,6.5-2.3,8.9c-2.1,2.7-5.6,1.2-8.4,2.7c-1.8,0.9-2.4,2.4-3.4,4c-1.3,2-3.3,3.4-5.8,1.9c-1.7-1-2.9-2-5-2.1
		c-1.5-0.1-3,1.2-4.5,0.8c-0.6-0.2-1.2-0.7-1.8-0.9c-1.2-0.3-2.2,0.4-3.4-0.1C305.6,192,305.7,191.6,305.4,190.6"/>
	<path class="st0" d="M357.7,86c-0.2,0.2-0.4,0.5-0.6,0.7c-0.7-0.6-0.2-1.6,0.2-2.1c2.4-3.2,6.5-1.5,9.7-1.2c2.7,0.3,1.8-2,2.8-3.2
		c0.8-1,2.5-0.5,3.1,0.5c0.8,1.2-0.8,4,0.2,4.1c0.2,1.1-1.1,1.3-1.7,0.6c-0.8-1,0.5-1.3,0.7-2.1c0.2-0.8,0-2.2-0.9-2.2
		c-1.2,0-1,1.4-1.5,2.1c-0.7,0.8-1.9,1.2-2.9,1.2c-1.6,0.1-3-0.9-4.6-0.9C360.3,83.3,358.9,84.6,357.7,86"/>
	<path class="st0" d="M356.7,82.2c0.5-1.4,1.6-2.6,2.7-3.2c1.8-1,4.3-0.8,6.1,0.2c0.7,0.4,3.5,2.7,3,3.8c-1.7,0.3-1.7-1.8-2.8-2.5
		c-1.3-0.9-3.7-0.4-5,0.4c-0.9,0.5-1.6,1.2-2.3,2c-0.1,0.2-1.5,2.7-1.3,2.7c-0.1,0-0.2,0-0.3,0C356.1,84.5,356.2,83.3,356.7,82.2"/>
	<path class="st0" d="M337.2,84.4c2.3-0.6,3.4-2,4.7-3.9c0.7-1,1.7-1.8,2.8-2.4c0.6-0.4,1.5-0.7,2.3-0.3c0.6,0.3,1,1.1,1.6,1.2
		c1.9,0.3,3.1-2.3,5.2-1.4c1.9,0.8,1.7,3.3,2.4,4.9c0.2,0.6,0.7,1.1,1,1.7c0.6-2.4,0.5-4.8-1-6.8c-1.4-1.9-3.5-2.2-5.4-1.1
		c-2.1,1.2-4.5-0.4-6.5,0.7c-1.4,0.8-2.5,2.7-3.5,3.8c-1.4,1.6-2.6,2.2-4.7,1.6c-2.2-0.6-4,1.3-4.4,3.3c-0.3,1.6-0.3,4.4-2.1,5.2
		c1.9,0.9,2.6-1.2,3.1-2.6C333.4,86.1,334.8,85,337.2,84.4"/>
	<path class="st0" d="M282.7,162c3.4-0.1,3.6-3.8,7.4-4.5c4-0.7,1.6-6.7,10.2-6.6c0.8,0,1.4,0.3,2.1,0.5c0.6,0.2,1.1,0.4,1.5,0.9
		c0.2,0.2,0.4,0.4,0.6,0.7c0.2,0.3,0.1,0.4,0.1,0.8c-2.1-1.1-4.9-2-7.2-0.9c-1.8,0.9-3.1,2.4-3.6,4.4c-1,3.6-2.7,2.3-4.6,3.1
		C286.8,161.5,285.5,163.7,282.7,162"/>
	<path class="st0" d="M255.8,177.7c-0.9,0-1.8,0-2.7-0.1c-14.9-0.9-19.6-5.7-30.9-0.4c-0.3,0.1-0.6,0.3-0.9,0.5
		c-11,5.9-7.2,15.8-14.4,21.9c-6.5,5.5-18.4,8.6-24,13c-3.5,2.8-4.8,7-5.3,8.8c-1,4.6-0.4,10.5,3.1,16.1c2.7,4.4-1.8,7-0.8,11.4
		c0.9-3.3,3.2-5.1,3.8-8.1c0.5-2.5-0.5-4.9-1.9-7.1c-1.7-2.6-2.6-8.3-2.1-11.4c0.7-4.1,5.4-6.8,9.5-8.4c10.9-4.3,21.8-11.2,24.5-22
		c4.1-16.6,20.3-16.2,31.4-14.2c-7.4,0.3-14.2,1.6-20.3,5.5c-6.5,4.2-8.7,13.8-11.2,16.6c-13,14.3-29.3,15.3-28.4,41.9
		c0,1.4-2,5.5-2.6,7.5c-0.6,1.9-1.3,3.7-1.2,5.7c0.1,0.8,0.4,3.5,2.5,4.5c-0.7-1.2-1.4-2.7-1.4-4c0-1.7,0.6-2.8,1.2-4.4
		c0.8-2.1,1.6-4.2,2.3-6.4c1-3.5,1.5-7.1,1.9-10.7c1.4-15.8,12-19.9,26-28.6c3.5-2.2,4.9-5.2,5.9-8.2c0.5-1.6,1-3.3,1.2-5
		c0.2-2,0.6-4.1,2.1-5.7c0.3-0.4,2.8-2.2,3.2-2.5c4.1-2.8,9.2-3.7,14.2-4.6c4.1-0.8,7.5-0.5,11.2-0.3c0.3,0.1,0.6,0.1,0.9,0.2
		c-5.7,0.4-11.9,1.3-18,3.8c-0.9,0.4-2.1,0.8-3,1.3c-0.8,0.5-1.6,0.9-2.4,1.4c-4,2.3-5.5,6-6.1,9.9c-0.7,4.8-1.8,9.3-6.5,11.5
		c-31.5,14.7-23.2,26.6-27.6,36.4c-2.5,5.7-4.6,10.4-3,16.4c1,3.7,8.1,12.9,24.2,14.9c-7.6-3.7-25.5-7.3-22.7-22.5
		c1-5.2,5.3-13.6,5.9-20.1c0.2-2.1,1.6-4.2,3.1-6.3c5.7-7.4,16.8-9.4,23.1-16.1c3.9-3.6,6.1-8.2,6.9-13c0.4-2.2,1-8.1,6.1-11.2
		c2.7-1.6,6.1-2.7,9.2-3.4c2.8-0.6,5.8-0.9,9-1.3c-0.7,0.2-1.5,0.4-1.9,0.5c-1.2,0.3-2.3,0.6-3.4,1c-2.3,0.8-4.5,1.7-6.6,2.7
		c-4.5,2-8.4,5.1-9,8.5c-3.2,19.3-18.9,23.3-29.9,35.8c-1.3,1.6-2.2,3.2-2.8,4.9c-0.6,1.7-0.8,3.4-2.3,5.7c-7.1,11.6-6,31.7,15,29.3
		c-9.4-1.3-18.5-8.1-17.9-16.8c1.2-5.8,5.1-11.2,7.2-15.8c2.1-4.5,2.8-7.1,6.1-9.4c13.3-9.1,24.9-16.4,25.1-29.4
		c0.1-5.1,4.2-9.3,7.6-11c3.8-1.9,7.3-3.2,11.4-4.3c-0.8,0.4-7.6,3.9-12.9,7.8c-2.6,1.9-5.3,8.4-5.6,13.1
		c-0.8,14.5-9.7,19.2-23.2,27.7c-6.6,4.1-10.7,13.2-11.4,19.9c-0.4,3.8,0.3,7.8,3.6,10.6c1.8,1.5,4,2.3,6.3,2.8c4,1,5,1.4,7.4,4.5
		c2.2,2.8,3.6,3.3,7.4,4.7c-3.3-3.2-3-7.2-6.1-10.1c-2.5-2.4-6.7-1.9-9.6-3.6c-3-1.7-4.1-4.7-4.5-7.6c-1-7.5,3.2-15,9.5-20
		c0.7-0.6,2-0.9,2.9-1.3c5.5-2.2,10.6-5.2,14.3-9.3c2.6-2.8,4.4-6.2,5.4-9.7c0.6-2.1,0.9-4.3,0.9-6.5c0.1-2.7,0.2-4.9,0.9-7.6
		c1.4-5.7,6.1-8.7,8.8-10.7c1.9-1.3,4.1-2.1,6.3-2.9c1-0.3,4.8-1.6,4.8-1.6s3.6-4.1,3.9-4.7C259.1,177.9,256.4,177.6,255.8,177.7"/>
	<path class="st0" d="M346.3,251.8c0,0,0.5-3.9,0.4-3.9c-10.7-0.7-26.2-3.9-33.1-6.1c-0.3-0.1-0.4-8.9-7.3-13.6
		c-0.9-0.6,0.6,2.5,1.1,5.9c0.6,4.6,0.3,10.1,0.3,10.6c0,12-5.7,34.2-5.6,34.9c0.6,3.8,1,7,7.3,11.3c9.5,6.4,27,24.1,27.3,25.6
		c-19.3-14.8-33.2-23.2-42.5-25.6c-2.8-0.7-5.8-34.9-21.5-46.9c-7.8-5.9-16.4-11-19.8-17.7c-9.8-19.2-3.8-42.7,21.4-52.6
		c19.9-7.8,48.7,1.1,58.8,4.6c0.3,0.1,0.3-2.1-0.2-2.3c-8-3.4-39-13.2-63-4.6c-27,9.7-34.4,35.8-20.1,59.2
		c9.3,15.2,31.1,17.2,33.7,44.4c0.6,5.8,1,9.7,1.1,12.4c0.2,5,3.7,6.5,6.4,6.9c8,1.3,48.5,22.4,51.4,34.1c0.2,0.9-0.1,2.5-0.6,3.3
		l14.1,0.1c0-1.2-3.1-5.7-4.5-7.9c-3.3-5.2-27.2-22.9-29.4-25c-14.2-13.4-15.4-23.5-15.3-25.2c0-0.8,3.9-25.8,4.3-28.2
		c0-0.2,0-0.2,0-0.2c0.4,0.1-0.4-6.6,0-6.4c0.3,0.1,1.8,7.1,2.1,7.2C321.3,248.9,340.2,251.7,346.3,251.8"/>
	<path class="st0" d="M352.2,252.3l2.6-3.9c0,0,13.9,0.4,20.5-1.8c0,0,13.7,15.7,19,20.4c3.6,3.2,13.5,12.5,15.1,13.6
		c1.7,1.2,3.5,3,3.7,5.2c0.2,1.9-1.2,3.4-2.1,5c-0.9,1.8-4.9,10.2-6,12.6c1.3,0,14.5-16.5,12.2-20.5c-3.1-5.5-6.2-11-9.5-16.4
		c-2.2-3.6-4.5-7.1-7-10.4c-0.6-0.8,2.6-2.8,4.8-6c2.3-3.3,3.8-7.7,4-7.3c0.1,0.1,1.7,5.8,0.4,9c-0.6,1.4-3.2,4.4-3,4.7
		c4.4,7.2,9.3,18,10.9,21.1c1.2,2.2,3.6,4.4,3.8,7.4c0.2,4-9.7,15.5-12.3,18.1c-3.6,3.8-5.8,8.2-9.1,11.4c-1.7,1.6-12.9,8-12.9,8
		c0.3-1.1-0.5-12.2-0.2-13.8c0-0.2,10.8-1.4,11.6-2.1c3.4-3.1,5.7-8.8,7.9-12.8c1.2-2.1,3.1-4.5,3.4-7c0.3-2.8-2.8-4.8-4.8-6.1
		c-5.3-3.3-15.5-13-18.5-15.4c-3.1-2.5-11.8-11-12.7-13.2C366.6,252.9,352.2,252.3,352.2,252.3"/>
	<path class="st0" d="M237.8,255.3C238.1,255.2,237.6,255.2,237.8,255.3"/>
	<path class="st0" d="M247.9,260.7c-4-0.3-5.2,4.4-5.6,5.1c-0.2,0.3-0.6,10.3-1.2,17.5c-0.3,3.2-1.2,7-2.3,10.5
		c1.7-11.5-1.4-25.2-2.8-30.4c-0.9-3.3,1-6.7,2.3-7c2.5,0.2,13.4-8.7,20.1-16.9c0,0,9.3,3.2,12.3,6.6c3,3.3,7.6,8.7,7.6,8.7
		C270,263,263.1,261.8,247.9,260.7 M279.3,256.4c-4.5-5-24.3-20.7-24.3-20.7c-0.6,1.3-1.5,3.4-2.5,4.9c-6,8-14.4,13-15.3,12.8
		c-1.7,0.3-3.6,1.3-4.7,2.8c-1.4,2-1.5,4.6-0.6,6.7c2.5,6.1,4,19,3.7,24.5c-0.2,5.6,0.4,10.5-1.7,15.7c-2.5,6.2-13.9,6-14.8,6.2
		c0,0,6,12.7,6,12.7c0.9-0.7,6.7-4.8,7.6-6.9c2.3-5.1,2.4-5.1,3.9-9c0.9-2.5,5.5-13.7,6.3-17.4c1.1-5.9,1.6-11.7,1.5-12.7
		c0-0.1,0.4-5.2,0.8-5.9c0.5-0.9,1.4-1.9,2.4-2.3c1.2-0.5,6.6-1,8.2-0.9c1,0.1,14.2,1.1,21.3-5.1C277,261.8,280.9,258.2,279.3,256.4
		"/>
	<path class="st0" d="M345.5,145.7l-0.5,1.8c0,0.1,0,0.1,0,0.2c0-2,0-3.9,0-5.8C345.5,143.1,345.8,144.4,345.5,145.7 M363.4,131.7
		c-1.2,0.5-4.4,3.2-4.6,3.5c-0.5,1-0.9,2.2-1.1,3.4c-0.5,2.9-0.4,3.9-2,5.4c-0.7,0.7-7,4.8-9.8,6.3c0.3-0.8,0.6-1.7,0.8-2.4l0.5-1.9
		c0.5-2.2,0.1-4.6-1.1-6.2c-0.5-0.7-0.5-1.8-0.7-2.5c0.1-0.9,0.2-1.8,0.3-2.6c0.1-1.5-0.7-3-0.7-4.4c0,0.9-0.9,1.9-0.9,3
		c-0.1,2.2-2,15,0,20.3c0.4,1.1,9.7-6.5,12.1-8.5c3-2.5,2.4-5,3.5-8.4c0.3-0.9,3.2-3.7,4.2-4.4c1.3-0.9,3.8-1.6,4.3-1.9
		C367.4,130.1,364.3,131.3,363.4,131.7"/>
	<path class="st0" d="M362.7,91.9c-1,0.4-2.8,1.9-2.9,2.5c-0.1,0.8,0.2,2,0.5,2.6c0.5,1.1,0.6,0.9,1.3,2.1c0.2-0.5-0.5-1.5-0.6-1.8
		c-0.2-0.8-0.3-0.8-0.3-1.3c-0.1-1.8,1.9-1.1,1.7-3.3"/>
	<path class="st0" d="M362.9,139.5c-0.9,2.1-0.4,3.5-1.9,5.4c-3.9,5.1-18.6,17.8-19.3,17c-3.5-3.6-4.8-14.8-4.8-22.8
		c0-5.9,0.4-12.1,1.6-15.5c1.3-3.9,3.3-6.1,6.1-6.9c0.6-0.2,1.4-0.3,2.2-0.2c2.4,0,7.8,1.7,8.8,4.4c-0.7-1.9-2.2-3.4-4-4.5
		c0.2-1.8-0.3-8.4-1.3-12.6c0,0,0,0.3-1,0.2c-0.9-0.2-1.3-1.5-1.3-1.5c0.5,1.7,2.3,11.2,2.3,13.3c-2-0.9-4.2-1.1-6.2-0.6
		c-3.4,0.9-5.8,3.6-7.3,8c-1.4,4.1-1.8,11.5-1.8,18.1c0.1,7.2,1.2,19.5,5.5,23.8c2.1,2.1,20.2-17.2,21.7-20.8
		c0.6-1.5,1.1-3.5,2.4-6.1c1.2-2.2,2.1-5.7,3.3-7.8C367,131.1,364.1,136.8,362.9,139.5"/>
	<path class="st0" d="M367.2,173.6c-2,6.9-1.7,5.8-5.9,8.4c-4.9,3-4.6,5.1-3.9,9.4c0.7,3.9-1.6,4.8-5,4.2c-4-0.8-5.3,4.3-8.9,3.9
		c-1.8-0.2-2.9,0.6-4.7,1.5c-0.9,0.5-2.7,1.8-3.6,0.6c2.2,0.3,2.7-1.7,4.1-2.7c1.6-1.1,3.7-0.7,5.5-1.6c1.3-0.7,1.8-2.3,3.2-2.9
		c1.6-0.6,3.4,0.7,5,0.1c2.4-0.8,1.9-4.4,1.4-6.3c-1.3-4.8,4.7-6.7,6.3-8c1.6-1.4,3.4-3.2,4.3-6.3c1.7-5.8-0.1-9.4,0.1-13.3
		c0.1-1.8,0.1-2.8,1.1-4.4c1-1.6,3-2.5,4.4-3.8c1.1-1.1,3.1-2.4,4.4-3.1c-1.6,1.9-4.7,3.9-6.2,5.4c-1.8,1.9-2.8,3.9-2.5,6.8
		C367,165.4,368.3,169.9,367.2,173.6"/>
	<path class="st0" d="M392.4,121.5c-1.7-1.4-3.7-1.8-2.7-4.8c0.5-1.5,1.4-2.9,1-4.8c-0.3-1.3-1-2.5-2.1-3.2c-1.2-0.8-2.7-1-4.1-1.1
		c-1.6-0.1-3.2-0.2-4.7-0.3c-0.7-0.1-1.7-0.2-2.4-0.5c-0.3-0.1-1.2-0.5-1.7-1.4c-0.7-1.4,1.2-1.9,2.1-2.5c0.7-0.5,1.3-1.2,1.6-1.9
		c1-2,0.5-4.5-1.6-5.4c-0.9-0.4-0.9-1.2-0.3-1.8c1.6-1.8,1.3-6.8-3.4-6.6c-2.4,0.1-3,1.6-5.7,1.3c-1.5-0.2-2.4-0.7-3-2.8
		c-0.5-1.9-2.4-2.9-4.2-1.8c-0.9,0.5-1.3,1.4-1.7,2.3c-0.1,0.3-0.7,1.1-0.1,1.2c0.5,0.1,0.5-0.7,0.7-1c0.2-0.2,0.4-0.4,0.7-0.5
		c1-0.5,2.3-0.3,2.5,0.9c0.9,4.7,1.9,6.3,3.1,8.2c0.6,1,1.5,2.4,0.6,3.3c-0.7,0.7-1.8,0.7-1.9,2c-0.1,1.2,0.7,2.4,2.1,2.2
		c1.6-0.2,1.5-2.7-0.2-2.4c0.6,0,0.9,0.9,0.4,1.2c-0.9,0.6-1.7-0.5-1.1-1.3c0.4-0.5,1.3-1,1.8-1.4c1.9-1.5,0.7-3.4-0.5-5
		c-1.6-2.2-3-4.3-3.1-6.4c2.1,4.3,7,1.3,9.8,0.8c3-0.6,3.8,3.2,1.4,4.8c-2.3,1.6-1.1,2.9,1.5,3.7c0.4,0.1,0.8,0.3,1.1,0.7
		c0.7,0.8,0.4,1.9,0,2.7c-0.3,0.5-0.7,1-1.2,1.4c-0.5,0.4-1.1,0.8-1.5,1.3c-0.2,0.3-0.6,0.8-0.7,1.1c-0.1,0.4-0.1,0.8,0.1,1.2
		c0.1,0.4,0.4,0.8,0.8,1.1c0.6,0.5,1.4,0.9,2.3,1.3c1.2,0.5,3.2,1.1,4.2,1.3c1.3,0.2,2.7,0.6,3.7,1.2c2.1,1.1,3.4,2.4,2.8,6
		c-0.3,2-2.2,2.9-0.9,4.8c0.8,1.3,3.5,1.5,4.3,3.2c1.4,3-0.8,3.9-2.6,5.2c-1.3,0.9-2.4,1.5-2.7,3.1c-0.5,2.2,1.7,3.8,0.3,6.2
		c-0.8,1.4-2.6,2.1-4.1,2.6c-2,0.7-2.2,1.8-3.9,3.1c-1.9,1.4-3.7,3.5-5.4,5c-2.8,2.5-8.8,2.6-10.6,6.3c-2.2,4.4,0.9,10.2,0,14.6
		c-0.9,4.9-6.8,5.4-10.7,5.7c-4.9,0.4-8.2,2.4-6.7,7.5c1.1,3.6,2,3.8,1.5,6.1c-0.7,3-4.4,3.2-6.7,4.1c-3,1.2-4.5,4.3-9.9,4.4
		c-2.2,0.1-3.9-0.5-6.1,0.3c-2.4,0.9-4.5,2.5-7.1,0.5c-0.8-0.6-0.8-2-1.9-2.4c-1.4-0.4-2.9,0.9-3.8-0.8c-0.3,3,2.4,1.4,3.8,2
		c1.5,0.6,2,2.4,3.5,3.1c2.2,1,4.6-0.1,6.8-0.6c2.3-0.6,3.6-0.1,5.8,0.1c3.6,0.3,5-1.9,7.6-3.7c2.8-1.9,7.4-1.6,9.6-4.1
		c2.6-2.8-0.1-6.6-0.4-7.9c-1.3-4.5,0.3-7.5,8.9-8.2c3.9-0.3,6-2.4,6.3-2.7c3.4-4.1-0.2-10.2,0-14.5c0.2-4,4.4-4.5,7.2-6.5
		c2.7-1.9,4.2-4.1,6.4-6.5c0.2-0.2,0.5-0.5,0.7-0.7c2.2-2,4.6-2.9,7.2-4.4c1.7-1,3.4-2.4,3.6-4.4c0.2-2.1-0.6-4.1,1.4-5.6
		c1.6-1.2,4-2.2,4.6-4.5C395.3,124.1,394.2,122.9,392.4,121.5"/>
	<path class="st0" d="M364.5,89.4c2.2,4.7,6.5,3.7,8.2,2.5c4.4-3.2,4.8-0.9,3.6,0.3l1.1-0.2c0.5-2.3-0.6-3.4-4.3-1.6
		c-2.6,1.3-6.4,0.5-8.8-4.2L364.5,89.4z"/>
	<path class="st0" d="M364.8,100.4c-1.5,2.3-2.5,7.4,0.9,10.3c1.7,1.6,5,2.1,5.7,4.5c1,3.4-1.6,6.7-2.7,9.8
		c-0.5,1.3-0.5,2.5-0.6,3.9c-0.2,2,0.8,3.1,1.2,4.9c0.2,0.8-0.1,1.7-0.1,2.3c-0.1,1.8,1.1,3.2,1,5.1c-0.2,4-3.3,6.4-4.3,10
		c0.4-1.4,2.1-2.9,3.1-3.8c1.8-1.5,2.2-2.9,2.4-5.3c0.1-1.9-1.6-3.9-1.3-5.8c0.2-1.8,0.5-3,0.1-4.7c-0.6-3-0.5-5.7,0.7-8.5
		c1.3-3,3.8-8.9-0.3-11c0.5,0.1,1.1,0.2,1.6,0.4c0.7,0.3,2.8,1.8,3.4,2.4c1.7,1.6,1.6,3.5,0.8,6.3c-0.8,2.8-3.2,3.8-3.8,6.3
		c-0.3,1.2-0.2,2.2,0.1,3.4c0.3,1,1,2,1,3.1c-0.1,1.1-0.4,2.1,0.2,3.2c0.4,0.7,1,1.3,1.4,2.1c0.8,1.8,0.5,3.6,0.8,5.5
		c-0.2-1,0.5-2.1,0.7-3c0.1-0.6-0.1-1.4-0.2-2c-0.2-1.2-0.9-1.9-1.5-2.9c-0.8-1.3,0-2.2,0.1-3.5c0.2-1.6-0.9-3.2-0.8-4.9
		c0.1-1.9,1.7-2.9,2.7-4.5c1.6-2.8,1.7-6.4,0.3-8.7c-2.2-3.6-7.9-4-10.8-6.5c-2.4-2.1-2.5-5.2-1.2-8l0.2-0.9L364.8,100.4z"/>
</g>
</svg>
